<svg xmlns="http://www.w3.org/2000/svg" viewBox="0 0 108 30"><defs><style>.cls-1{fill:#fff;}.cls-2{fill:#9ed1ba;}</style></defs><g id="Layer_2" data-name="Layer 2"><g id="Layer_1-2" data-name="Layer 1"><path class="cls-1" d="M23.5,11.67v-.05a6.84,6.84,0,0,1,7-6.91,6.7,6.7,0,0,1,4.55,1.48,1.68,1.68,0,0,1,.6,1.29,1.73,1.73,0,0,1-2.81,1.31A3.64,3.64,0,0,0,30.47,8a3.4,3.4,0,0,0-3.23,3.62v0a3.4,3.4,0,0,0,3.38,3.66,3.83,3.83,0,0,0,2.49-.91,1.75,1.75,0,0,1,1-.35,1.59,1.59,0,0,1,1.59,1.61,1.57,1.57,0,0,1-.55,1.19,6.58,6.58,0,0,1-4.72,1.71A6.8,6.8,0,0,1,23.5,11.67Z"/><path class="cls-1" d="M37.34,11.67v-.05a7,7,0,0,1,7.24-6.91,6.91,6.91,0,0,1,7.19,6.86v0a7,7,0,0,1-7.24,6.91A6.92,6.92,0,0,1,37.34,11.67Zm10.7,0v-.05A3.54,3.54,0,0,0,44.53,8a3.41,3.41,0,0,0-3.46,3.62v0a3.53,3.53,0,0,0,3.51,3.66A3.41,3.41,0,0,0,48,11.67Z"/><path class="cls-1" d="M67.92,16.5a1.89,1.89,0,0,1-3.78,0v-.18A4.92,4.92,0,0,1,60,18.48c-3.11,0-6.07-2.43-6.07-6.86v0c0-4.44,2.91-6.86,6.07-6.86a5.12,5.12,0,0,1,4.16,2V1.88a1.89,1.89,0,0,1,3.78,0ZM57.69,11.57v0a3.27,3.27,0,1,0,6.5,0v0a3.27,3.27,0,1,0-6.5,0Z"/><path class="cls-1" d="M77.62,18.53a6.66,6.66,0,0,1-7-6.86v-.05a6.63,6.63,0,0,1,6.6-6.91,6.29,6.29,0,0,1,6.42,6.39,1.72,1.72,0,0,1-1.77,1.81H74.41a3.1,3.1,0,0,0,3.26,2.6,4.4,4.4,0,0,0,2.69-.9,1.5,1.5,0,0,1,2.39,1.19,1.5,1.5,0,0,1-.5,1.12A6.94,6.94,0,0,1,77.62,18.53Zm2.44-8c-.23-1.68-1.22-2.82-2.81-2.82s-2.59,1.11-2.89,2.82Z"/><path class="cls-1" d="M86.55,6.69a1.89,1.89,0,0,1,3.78,0v.59C90.88,6,91.78,4.81,92.9,4.81a1.71,1.71,0,0,1,1.84,1.83A1.74,1.74,0,0,1,93.32,8.4c-1.92.44-3,1.9-3,4.58V16.5a1.89,1.89,0,0,1-3.78,0Z"/><path class="cls-1" d="M96.11,16.72v-.07A2.47,2.47,0,0,1,97,14.81L103.15,8H97.87a1.53,1.53,0,0,1-1.54-1.51A1.55,1.55,0,0,1,97.87,5h8.29A1.63,1.63,0,0,1,108,6.47v.07a2.45,2.45,0,0,1-.85,1.83l-6.22,6.81h5.53A1.55,1.55,0,0,1,108,16.72a1.53,1.53,0,0,1-1.54,1.51H98C96.88,18.23,96.11,17.61,96.11,16.72Z"/><path class="cls-1" d="M35.56,28.65l-2-4.46a.31.31,0,0,1,0-.13.29.29,0,0,1,.29-.28.32.32,0,0,1,.3.21l1.74,4.16L37.66,24a.33.33,0,0,1,.28-.2.28.28,0,0,1,.28.27.5.5,0,0,1,0,.12l-2,4.48a.35.35,0,0,1-.33.24h0A.33.33,0,0,1,35.56,28.65Z"/><path class="cls-1" d="M39.06,24a.3.3,0,0,1,.32-.29.3.3,0,0,1,.33.29v.1a.3.3,0,0,1-.33.29.3.3,0,0,1-.32-.29Zm0,1.41a.28.28,0,0,1,.27-.28.27.27,0,0,1,.28.28v3.22a.27.27,0,0,1-.27.28.27.27,0,0,1-.28-.28Z"/><path class="cls-1" d="M40.75,28.44a.26.26,0,0,1-.1-.2.24.24,0,0,1,.24-.24A.23.23,0,0,1,41,28a2.09,2.09,0,0,0,1.18.4c.45,0,.77-.23.77-.59h0c0-.38-.44-.52-.93-.66s-1.23-.36-1.23-1v0c0-.64.53-1.06,1.27-1.06a2.56,2.56,0,0,1,1.19.32.26.26,0,0,1,.13.23.24.24,0,0,1-.24.23.19.19,0,0,1-.12,0,2,2,0,0,0-1-.28c-.44,0-.72.23-.72.53v0c0,.35.46.49,1,.64s1.2.39,1.2,1.06h0c0,.7-.59,1.11-1.33,1.11A2.61,2.61,0,0,1,40.75,28.44Z"/><path class="cls-1" d="M44.54,24a.3.3,0,0,1,.32-.29.3.3,0,0,1,.33.29v.1a.3.3,0,0,1-.33.29.3.3,0,0,1-.32-.29Zm.05,1.41a.28.28,0,0,1,.27-.28.27.27,0,0,1,.28.28v3.22a.27.27,0,0,1-.27.28.27.27,0,0,1-.28-.28Z"/><path class="cls-1" d="M46.2,27v0a1.94,1.94,0,0,1,3.88,0h0a1.93,1.93,0,0,1-1.95,1.94A1.9,1.9,0,0,1,46.2,27Zm3.31,0v0a1.41,1.41,0,0,0-1.38-1.45A1.37,1.37,0,0,0,46.77,27h0a1.39,1.39,0,0,0,1.37,1.44A1.36,1.36,0,0,0,49.51,27Z"/><path class="cls-1" d="M51.08,25.37a.28.28,0,0,1,.27-.28.28.28,0,0,1,.29.28v.4a1.4,1.4,0,0,1,1.27-.72,1.36,1.36,0,0,1,1.43,1.48v2.06a.28.28,0,0,1-.28.28.27.27,0,0,1-.28-.28V26.67a1,1,0,0,0-1-1.12,1.08,1.08,0,0,0-1.11,1.16v1.88a.28.28,0,1,1-.56,0Z"/><path class="cls-1" d="M59.1,24.34H57.64a.27.27,0,0,1-.27-.26.28.28,0,0,1,.27-.27h3.5a.28.28,0,0,1,.27.27.27.27,0,0,1-.27.26H59.68v4.24a.29.29,0,1,1-.58,0Z"/><path class="cls-1" d="M63.06,28.92A1.84,1.84,0,0,1,61.2,27v0A1.82,1.82,0,0,1,63,25.05a1.74,1.74,0,0,1,1.73,1.87.25.25,0,0,1-.26.26H61.76a1.3,1.3,0,0,0,1.31,1.26A1.52,1.52,0,0,0,64.14,28a.26.26,0,0,1,.16-.07.25.25,0,0,1,.25.24.24.24,0,0,1-.09.18A1.88,1.88,0,0,1,63.06,28.92Zm1.1-2.15A1.23,1.23,0,0,0,63,25.51a1.28,1.28,0,0,0-1.21,1.26Z"/><path class="cls-1" d="M65.46,27v0a1.95,1.95,0,0,1,3.28-1.4.28.28,0,0,1,.08.2.26.26,0,0,1-.26.26.3.3,0,0,1-.18-.06,1.43,1.43,0,0,0-1-.45A1.38,1.38,0,0,0,66,27h0a1.39,1.39,0,0,0,1.37,1.44,1.47,1.47,0,0,0,1-.45.26.26,0,0,1,.16-.07.25.25,0,0,1,.25.25.22.22,0,0,1-.07.17,1.87,1.87,0,0,1-1.4.6A1.91,1.91,0,0,1,65.46,27Z"/><path class="cls-1" d="M69.8,23.84a.28.28,0,0,1,.28-.28.29.29,0,0,1,.28.28v1.93a1.4,1.4,0,0,1,1.27-.72,1.36,1.36,0,0,1,1.43,1.48v2.06a.28.28,0,1,1-.56,0V26.67a1,1,0,0,0-1-1.12,1.08,1.08,0,0,0-1.11,1.16v1.88a.28.28,0,1,1-.56,0Z"/><path class="cls-1" d="M74.24,25.37a.28.28,0,0,1,.27-.28.27.27,0,0,1,.28.28v.4a1.43,1.43,0,0,1,1.28-.72,1.35,1.35,0,0,1,1.42,1.48v2.06a.28.28,0,1,1-.55,0V26.67a1,1,0,0,0-1-1.12,1.09,1.09,0,0,0-1.12,1.16v1.88a.27.27,0,0,1-.27.28.27.27,0,0,1-.28-.28Z"/><path class="cls-1" d="M78.44,27v0a1.94,1.94,0,0,1,3.88,0h0a1.94,1.94,0,0,1-3.88,0Zm3.32,0v0a1.41,1.41,0,0,0-1.39-1.45A1.38,1.38,0,0,0,79,27h0a1.39,1.39,0,0,0,1.38,1.44A1.37,1.37,0,0,0,81.76,27Z"/><path class="cls-1" d="M83.38,23.84a.28.28,0,1,1,.55,0v4.75a.28.28,0,1,1-.55,0Z"/><path class="cls-1" d="M85,27v0a1.94,1.94,0,0,1,3.88,0h0a1.93,1.93,0,0,1-2,1.94A1.9,1.9,0,0,1,85,27Zm3.31,0v0a1.41,1.41,0,0,0-1.38-1.45A1.37,1.37,0,0,0,85.56,27h0a1.39,1.39,0,0,0,1.37,1.44A1.36,1.36,0,0,0,88.3,27Z"/><path class="cls-1" d="M90,29.56a.27.27,0,0,1-.14-.23.26.26,0,0,1,.25-.25.21.21,0,0,1,.12,0,2.36,2.36,0,0,0,1.32.4,1.23,1.23,0,0,0,1.36-1.32v-.44a1.78,1.78,0,0,1-1.47.78,1.71,1.71,0,0,1-1.75-1.73h0a1.72,1.72,0,0,1,1.75-1.75,1.75,1.75,0,0,1,1.46.74v-.42a.27.27,0,0,1,.27-.28.28.28,0,0,1,.28.28v2.82a1.79,1.79,0,0,1-.47,1.31,2,2,0,0,1-1.42.49A3,3,0,0,1,90,29.56Zm2.92-2.76h0a1.31,1.31,0,0,0-1.37-1.26,1.23,1.23,0,0,0-1.29,1.25v0a1.26,1.26,0,0,0,1.29,1.26A1.31,1.31,0,0,0,92.88,26.8Z"/><path class="cls-1" d="M94.58,29.89a.24.24,0,0,1-.17-.23.23.23,0,0,1,.23-.24.32.32,0,0,1,.14,0,1.35,1.35,0,0,0,.4.06c.35,0,.55-.21.75-.66l0-.05-1.55-3.29a.42.42,0,0,1,0-.15.27.27,0,0,1,.28-.27.29.29,0,0,1,.28.21l1.3,2.91,1.15-2.91a.27.27,0,0,1,.54.06.32.32,0,0,1,0,.14L96.44,29c-.33.77-.69,1.05-1.25,1.05A1.66,1.66,0,0,1,94.58,29.89Z"/><path class="cls-1" d="M13,24H7.21a1.54,1.54,0,0,1-1.54-1.53v-5A3.94,3.94,0,0,0,4.93,15a3.94,3.94,0,0,0,.74-2.49v-5A1.54,1.54,0,0,1,7.21,6H13a1.52,1.52,0,1,0,0-3H7.21A4.58,4.58,0,0,0,2.63,7.52v5.17a.93.93,0,0,1-.17.54,1.4,1.4,0,0,1-.93.25h0A1.52,1.52,0,0,0,0,15H0a1.52,1.52,0,0,0,1.52,1.52h0a1.32,1.32,0,0,1,.92.24.92.92,0,0,1,.18.57v5.15A4.58,4.58,0,0,0,7.21,27H13a1.52,1.52,0,1,0,0-3Z"/><path class="cls-2" d="M19.59,15.06a1.12,1.12,0,0,0-1.13-1.12h0a.69.69,0,0,1-.41-.08.38.38,0,0,1-.05-.19s0,0,0-.09v-3a3,3,0,0,0-3-3H12.46a1.12,1.12,0,0,0,0,2.24H15a.72.72,0,0,1,.72.72v3a2.64,2.64,0,0,0,.4,1.51,2.65,2.65,0,0,0-.4,1.52v3a.71.71,0,0,1-.72.71H12.46a1.13,1.13,0,0,0,0,2.25H15a3,3,0,0,0,3-3v-3c0-.05,0-.05,0-.09a.38.38,0,0,1,.05-.19.78.78,0,0,1,.41-.08h0a1.12,1.12,0,0,0,1.13-1.12Z"/><ellipse class="cls-1" cx="13.37" cy="12.22" rx="1.1" ry="1.09"/></g></g></svg>